<svg xmlns="http://www.w3.org/2000/svg" viewBox="0 0 24 24" width="24" height="24"><title>26.Information</title>
    <defs>
        <linearGradient id="info" data-name="Dégradé sans nom 50" x1="0" y1="0" x2="24" y2="24" gradientUnits="userSpaceOnUse">
        <stop offset="0" stop-color="#f0bb00"/>
        <stop offset=".2" stop-color="#ad9028"/>
        <stop offset=".44" stop-color="#edd78c"/>
        <stop offset=".7" stop-color="#eab601"/>
        <stop offset="1" stop-color="#6e5501"/>
        </linearGradient>
    </defs>
    <g id="_26.Information" data-name="26.Information" fill="url(#info)">
    <path d="M12,24A12,12,0,1,1,24,12,12.013,12.013,0,0,1,12,24ZM12,2A10,10,0,1,0,22,12,10.011,10.011,0,0,0,12,2Z"/><polygon points="15 19 11 19 11 11 9 11 9 9 13 9 13 17 15 17 15 19"/><rect x="11" y="5" width="2" height="2"/></g>
</svg>